<?xml version="1.0" encoding="UTF-8"?>
<!DOCTYPE svg PUBLIC "-//W3C//DTD SVG 1.1//EN" "http://www.w3.org/Graphics/SVG/1.1/DTD/svg11.dtd">
<svg xmlns="http://www.w3.org/2000/svg" version="1.1" width="426px" height="177px" style="shape-rendering:geometricPrecision; text-rendering:geometricPrecision; image-rendering:optimizeQuality; fill-rule:evenodd; clip-rule:evenodd" xmlns:xlink="http://www.w3.org/1999/xlink">
<g><path style="opacity:0.952" fill="#fe0000" d="M 22.5,1.5 C 43.7884,-0.357709 56.1218,9.14229 59.5,30C 57.2671,47.0662 47.6005,56.5662 30.5,58.5C 9.29653,55.7579 -0.203475,43.7579 2,22.5C 3.92191,15.5925 7.75524,10.0925 13.5,6C 16.5919,4.45406 19.5919,2.95406 22.5,1.5 Z"/></g>
<g><path style="opacity:0.968" fill="#a7d720" d="M 225.5,65.5 C 223.162,63.9605 220.495,63.2938 217.5,63.5C 213.143,61.5812 208.477,60.5812 203.5,60.5C 202.432,59.5655 201.099,59.2322 199.5,59.5C 198.081,58.5489 196.415,58.2155 194.5,58.5C 194.167,58.5 193.833,58.5 193.5,58.5C 192.432,57.5655 191.099,57.2322 189.5,57.5C 189.167,57.5 188.833,57.5 188.5,57.5C 187.081,56.5489 185.415,56.2155 183.5,56.5C 182.833,56.5 182.167,56.5 181.5,56.5C 180.432,55.5655 179.099,55.2322 177.5,55.5C 176.833,55.5 176.167,55.5 175.5,55.5C 174.081,54.5489 172.415,54.2155 170.5,54.5C 169.833,54.5 169.167,54.5 168.5,54.5C 167.432,53.5655 166.099,53.2322 164.5,53.5C 163.167,53.5 161.833,53.5 160.5,53.5C 159.432,52.5655 158.099,52.2322 156.5,52.5C 154.833,52.5 153.167,52.5 151.5,52.5C 151.158,51.6618 150.492,51.3284 149.5,51.5C 146.5,51.5 143.5,51.5 140.5,51.5C 139.791,50.596 138.791,50.2627 137.5,50.5C 110.859,48.8819 84.1925,47.8819 57.5,47.5C 57.4142,46.5041 57.7476,45.6708 58.5,45C 148.691,43.2432 237.358,53.9099 324.5,77C 353.885,85.03 381.218,97.3634 406.5,114C 412.495,118.661 417.828,123.995 422.5,130C 422.333,130.5 422.167,131 422,131.5C 385.787,112.486 347.287,100.986 306.5,97C 281.244,82.08 254.244,71.58 225.5,65.5 Z"/></g>
<g><path style="opacity:1" fill="#36a1cb" d="M 57.5,47.5 C 84.1925,47.8819 110.859,48.8819 137.5,50.5C 138.209,51.404 139.209,51.7373 140.5,51.5C 143.5,51.5 146.5,51.5 149.5,51.5C 149.842,52.3382 150.508,52.6716 151.5,52.5C 153.167,52.5 154.833,52.5 156.5,52.5C 157.568,53.4345 158.901,53.7678 160.5,53.5C 161.833,53.5 163.167,53.5 164.5,53.5C 165.568,54.4345 166.901,54.7678 168.5,54.5C 169.167,54.5 169.833,54.5 170.5,54.5C 171.919,55.4511 173.585,55.7845 175.5,55.5C 176.167,55.5 176.833,55.5 177.5,55.5C 178.568,56.4345 179.901,56.7678 181.5,56.5C 182.167,56.5 182.833,56.5 183.5,56.5C 184.919,57.4511 186.585,57.7845 188.5,57.5C 188.833,57.5 189.167,57.5 189.5,57.5C 190.568,58.4345 191.901,58.7678 193.5,58.5C 193.833,58.5 194.167,58.5 194.5,58.5C 195.919,59.4511 197.585,59.7845 199.5,59.5C 200.568,60.4345 201.901,60.7678 203.5,60.5C 207.921,62.1015 212.588,63.1015 217.5,63.5C 219.905,64.7682 222.572,65.4349 225.5,65.5C 252.116,72.989 277.782,83.1557 302.5,96C 313.419,101.953 323.419,109.119 332.5,117.5C 332.167,117.833 331.833,118.167 331.5,118.5C 318.311,115.739 304.977,114.905 291.5,116C 287.244,116.295 283.244,117.462 279.5,119.5C 276.808,110.608 271.808,103.108 264.5,97C 235.514,81.448 204.847,70.448 172.5,64C 150.377,59.2764 128.043,56.1098 105.5,54.5C 102.375,53.5206 99.0419,53.1872 95.5,53.5C 95.1667,53.5 94.8333,53.5 94.5,53.5C 89.6946,52.5128 84.6946,52.1795 79.5,52.5C 77.8333,52.5 76.1667,52.5 74.5,52.5C 71.3752,51.5206 68.0419,51.1872 64.5,51.5C 61.1667,51.5 57.8333,51.5 54.5,51.5C 54.7376,49.5956 55.7376,48.2623 57.5,47.5 Z"/></g>
<g><path style="opacity:0.984" fill="#a6d621" d="M 54.5,51.5 C 57.8333,51.5 61.1667,51.5 64.5,51.5C 67.6248,52.4794 70.9581,52.8128 74.5,52.5C 76.1667,52.5 77.8333,52.5 79.5,52.5C 84.3054,53.4872 89.3054,53.8205 94.5,53.5C 94.8333,53.5 95.1667,53.5 95.5,53.5C 98.6248,54.4794 101.958,54.8128 105.5,54.5C 151.363,59.2159 195.696,70.3826 238.5,88C 245.19,91.0083 251.523,94.5083 257.5,98.5C 229.039,107.376 200.372,115.543 171.5,123C 151.477,126.776 131.477,127.276 111.5,124.5C 126.489,120.897 140.489,115.063 153.5,107C 160.906,100.342 161.406,93.1758 155,85.5C 146.693,78.9265 137.526,73.7598 127.5,70C 101.777,61.8234 75.4434,56.6567 48.5,54.5C 50.2433,52.9617 52.2433,51.9617 54.5,51.5 Z"/></g>
<g><path style="opacity:0.733" fill="#fe0000" d="M 345.5,130.5 C 351.933,129.689 356.933,131.856 360.5,137C 358.11,141.372 355.777,141.372 353.5,137C 347.403,134.283 344.57,136.116 345,142.5C 350.289,146.12 355.289,150.12 360,154.5C 363.215,164.376 359.548,170.042 349,171.5C 343.018,170.678 338.518,167.678 335.5,162.5C 336.559,161.304 337.893,160.637 339.5,160.5C 341.946,163.231 344.946,165.231 348.5,166.5C 354.428,166.086 356.594,163.086 355,157.5C 351.117,153.95 346.951,150.783 342.5,148C 338.87,144.95 337.703,141.117 339,136.5C 340.494,133.686 342.66,131.686 345.5,130.5 Z"/></g>
<g><path style="opacity:0.803" fill="#fe0000" d="M 6.5,131.5 C 8.16667,131.5 9.83333,131.5 11.5,131.5C 11.5,144.5 11.5,157.5 11.5,170.5C 9.83333,170.5 8.16667,170.5 6.5,170.5C 6.5,157.5 6.5,144.5 6.5,131.5 Z"/></g>
<g><path style="opacity:0.727" fill="#fe0000" d="M 27.5,131.5 C 37.441,139.607 46.6077,148.607 55,158.5C 55.4998,149.506 55.6664,140.506 55.5,131.5C 57.5,131.5 59.5,131.5 61.5,131.5C 61.8325,144.517 61.4991,157.517 60.5,170.5C 51.5142,162.014 42.6809,153.348 34,144.5C 33.6667,152.833 33.3333,161.167 33,169.5C 31.3005,170.406 29.4672,170.739 27.5,170.5C 27.5,157.5 27.5,144.5 27.5,131.5 Z"/></g>
<g><path style="opacity:0.727" fill="#fe0000" d="M 74.5,131.5 C 76.604,131.201 78.604,131.534 80.5,132.5C 84.4495,141.342 88.7828,150.008 93.5,158.5C 97.8289,149.842 102.162,141.176 106.5,132.5C 108.396,131.534 110.396,131.201 112.5,131.5C 106.984,144.866 100.651,157.866 93.5,170.5C 90.8443,167.199 88.6776,163.532 87,159.5C 82.5409,150.252 78.3742,140.919 74.5,131.5 Z"/></g>
<g><path style="opacity:0.714" fill="#fe0000" d="M 125.5,131.5 C 134.167,131.5 142.833,131.5 151.5,131.5C 151.5,133.167 151.5,134.833 151.5,136.5C 144.492,136.334 137.492,136.5 130.5,137C 131.833,140 131.833,143 130.5,146C 137.158,146.5 143.825,146.666 150.5,146.5C 150.5,148.167 150.5,149.833 150.5,151.5C 143.825,151.334 137.158,151.5 130.5,152C 131.833,156.333 131.833,160.667 130.5,165C 137.158,165.5 143.825,165.666 150.5,165.5C 150.5,167.167 150.5,168.833 150.5,170.5C 142.167,170.5 133.833,170.5 125.5,170.5C 125.5,157.5 125.5,144.5 125.5,131.5 Z"/></g>
<g><path style="opacity:0.763" fill="#fe0000" d="M 163.5,131.5 C 169.842,131.334 176.175,131.5 182.5,132C 190.775,134.384 193.275,139.55 190,147.5C 186.949,150.912 183.115,152.912 178.5,153.5C 183.167,158.833 187.833,164.167 192.5,169.5C 190.172,170.724 187.839,170.724 185.5,169.5C 180.8,163.455 175.633,157.788 170,152.5C 169.501,158.491 169.334,164.491 169.5,170.5C 167.5,170.5 165.5,170.5 163.5,170.5C 163.5,157.5 163.5,144.5 163.5,131.5 Z M 169.5,136.5 C 173.514,136.334 177.514,136.501 181.5,137C 186.408,139.873 186.741,143.206 182.5,147C 178.179,147.499 173.846,147.666 169.5,147.5C 169.5,143.833 169.5,140.167 169.5,136.5 Z"/></g>
<g><path style="opacity:0.721" fill="#fe0000" d="M 206.5,131.5 C 216.079,139.575 225.246,148.242 234,157.5C 234.5,148.84 234.666,140.173 234.5,131.5C 236.5,131.5 238.5,131.5 240.5,131.5C 240.832,144.517 240.499,157.517 239.5,170.5C 230.514,162.014 221.681,153.348 213,144.5C 212.5,153.16 212.334,161.827 212.5,170.5C 210.5,170.5 208.5,170.5 206.5,170.5C 206.5,157.5 206.5,144.5 206.5,131.5 Z"/></g>
<g><path style="opacity:0.745" fill="#fe0000" d="M 256.5,131.5 C 258.5,131.5 260.5,131.5 262.5,131.5C 262.334,141.506 262.5,151.506 263,161.5C 267.959,167.303 273.292,167.637 279,162.5C 280.37,152.223 280.87,141.889 280.5,131.5C 282.167,131.5 283.833,131.5 285.5,131.5C 285.666,141.839 285.5,152.172 285,162.5C 276.866,173.607 267.866,174.274 258,164.5C 256.569,153.578 256.069,142.578 256.5,131.5 Z"/></g>
<g><path style="opacity:0.701" fill="#fe0000" d="M 301.5,131.5 C 310.167,131.5 318.833,131.5 327.5,131.5C 327.5,133.167 327.5,134.833 327.5,136.5C 320.833,136.5 314.167,136.5 307.5,136.5C 307.5,139.833 307.5,143.167 307.5,146.5C 314.167,146.5 320.833,146.5 327.5,146.5C 327.5,148.167 327.5,149.833 327.5,151.5C 320.833,151.5 314.167,151.5 307.5,151.5C 307.5,156.167 307.5,160.833 307.5,165.5C 314.167,165.5 320.833,165.5 327.5,165.5C 327.5,167.167 327.5,168.833 327.5,170.5C 318.833,170.5 310.167,170.5 301.5,170.5C 301.5,157.5 301.5,144.5 301.5,131.5 Z"/></g>
<g><path style="opacity:0.746" fill="#fe0000" d="M 392.5,131.5 C 393.496,131.414 394.329,131.748 395,132.5C 401.5,144.833 408,157.167 414.5,169.5C 412.579,170.641 410.579,170.808 408.5,170C 406.372,166.245 404.372,162.412 402.5,158.5C 396.5,157.167 390.5,157.167 384.5,158.5C 382.754,162.327 380.754,165.993 378.5,169.5C 376.604,170.466 374.604,170.799 372.5,170.5C 378.878,157.413 385.544,144.413 392.5,131.5 Z M 392.5,142.5 C 393.376,142.369 394.043,142.702 394.5,143.5C 396.353,146.858 397.853,150.191 399,153.5C 395.333,152.167 391.667,152.167 388,153.5C 389.429,149.953 390.929,146.286 392.5,142.5 Z"/></g>
</svg>
